<svg width="24" height="24" viewBox="0 0 24 24" fill="none" xmlns="http://www.w3.org/2000/svg">
<path d="M21.1887 19.9701L18.4369 19.1032C18.282 19.0555 18.1131 19.0687 17.9686 19.1401C16.5815 19.8072 15.0017 20.0278 13.4695 19.7685C11.9375 19.5091 10.5371 18.7839 9.48112 17.7031C9.92466 17.6945 10.367 17.6539 10.804 17.5819C12.4667 17.2957 13.9992 16.5414 15.2001 15.4176C16.401 14.2938 17.2144 12.8533 17.5335 11.2848C17.8403 9.74538 17.6656 8.15487 17.0309 6.70779C19.002 7.33844 20.5845 8.74947 21.3651 10.5722C22.1458 12.3951 22.0471 14.4491 21.0949 16.1976C21.0182 16.3346 21.0037 16.4952 21.0546 16.6426L21.9685 19.2334H21.9683C22.0422 19.4427 21.9845 19.6734 21.8195 19.8293C21.6543 19.9854 21.4102 20.0398 21.1887 19.9701L21.1887 19.9701ZM10.58 16.401C9.03296 16.6719 7.43469 16.4541 6.03142 15.7812C5.88697 15.7099 5.71812 15.6966 5.56313 15.7444L2.81133 16.6112C2.58982 16.681 2.34569 16.6264 2.18051 16.4705C2.01552 16.3144 1.95778 16.0837 2.03167 15.8744L2.94561 13.2837C2.99634 13.1364 2.98177 12.9757 2.90507 12.8387C1.98587 11.1428 1.86702 9.15904 2.57754 7.37588C3.28821 5.59279 4.76242 4.17612 6.63699 3.47464C8.51174 2.77316 10.6125 2.85214 12.4221 3.69226C14.2317 4.53221 15.5822 6.05521 16.1407 7.88594C16.6991 9.71679 16.4137 11.6853 15.3547 13.3067C14.2959 14.9281 12.5619 16.0517 10.5797 16.4008L10.58 16.401ZM5.52458 8.85886C5.52458 9.01793 5.59145 9.17053 5.71045 9.28299C5.82945 9.39545 5.99093 9.45865 6.15926 9.45865H12.2522C12.6027 9.45865 12.8869 9.19011 12.8869 8.85886C12.8869 8.52762 12.6027 8.25908 12.2522 8.25908H6.15926C5.99093 8.25908 5.82946 8.32228 5.71045 8.43474C5.59145 8.54719 5.52458 8.6998 5.52458 8.85886ZM10.3482 11.258C10.3482 11.0989 10.2813 10.9465 10.1623 10.8339C10.0431 10.7214 9.8818 10.6582 9.71347 10.6582H6.15917C5.809 10.6589 5.52552 10.9272 5.52552 11.258C5.52552 11.5889 5.80898 11.8573 6.15917 11.8578H9.71347C9.8818 11.8579 10.0431 11.7947 10.1623 11.6823C10.2813 11.5697 10.3482 11.4172 10.3482 11.258Z" fill="#C1C1C1"/>
</svg>
