<svg width="34" height="34" viewBox="0 0 34 34" fill="none" xmlns="http://www.w3.org/2000/svg">
<circle cx="17" cy="17" r="17" fill="#B81123"/>
<path fill-rule="evenodd" clip-rule="evenodd" d="M8 12.0001H9.185C9.599 13.1611 10.698 14.0001 12 14.0001C13.302 14.0001 14.401 13.1611 14.815 12.0001H26C26.553 12.0001 27 11.5531 27 11.0001C27 10.4471 26.553 10.0001 26 10.0001H14.815C14.401 8.8391 13.302 8.0001 12 8.0001C10.698 8.0001 9.599 8.8391 9.185 10.0001H8C7.447 10.0001 7 10.4471 7 11.0001C7 11.5531 7.447 12.0001 8 12.0001ZM24 14.0001C22.698 14.0001 21.599 14.8391 21.185 16.0001H8C7.447 16.0001 7 16.4471 7 17.0001C7 17.5531 7.447 18.0001 8 18.0001H21.185C21.599 19.1611 22.698 20.0001 24 20.0001C25.654 20.0001 27 18.6541 27 17.0001C27 15.3461 25.654 14.0001 24 14.0001ZM18.815 22.0001H26C26.553 22.0001 27 22.4471 27 23.0001C27 23.5531 26.553 24.0001 26 24.0001H18.815C18.401 25.1611 17.302 26.0001 16 26.0001C14.698 26.0001 13.599 25.1611 13.185 24.0001H8C7.447 24.0001 7 23.5531 7 23.0001C7 22.4471 7.447 22.0001 8 22.0001H13.185C13.599 20.8391 14.698 20.0001 16 20.0001C17.302 20.0001 18.401 20.8391 18.815 22.0001Z" fill="white"/>
<mask id="mask0_1072_2459" style="mask-type:alpha" maskUnits="userSpaceOnUse" x="7" y="8" width="20" height="18">
<path fill-rule="evenodd" clip-rule="evenodd" d="M8 12.0001H9.185C9.599 13.1611 10.698 14.0001 12 14.0001C13.302 14.0001 14.401 13.1611 14.815 12.0001H26C26.553 12.0001 27 11.5531 27 11.0001C27 10.4471 26.553 10.0001 26 10.0001H14.815C14.401 8.8391 13.302 8.0001 12 8.0001C10.698 8.0001 9.599 8.8391 9.185 10.0001H8C7.447 10.0001 7 10.4471 7 11.0001C7 11.5531 7.447 12.0001 8 12.0001ZM24 14.0001C22.698 14.0001 21.599 14.8391 21.185 16.0001H8C7.447 16.0001 7 16.4471 7 17.0001C7 17.5531 7.447 18.0001 8 18.0001H21.185C21.599 19.1611 22.698 20.0001 24 20.0001C25.654 20.0001 27 18.6541 27 17.0001C27 15.3461 25.654 14.0001 24 14.0001ZM18.815 22.0001H26C26.553 22.0001 27 22.4471 27 23.0001C27 23.5531 26.553 24.0001 26 24.0001H18.815C18.401 25.1611 17.302 26.0001 16 26.0001C14.698 26.0001 13.599 25.1611 13.185 24.0001H8C7.447 24.0001 7 23.5531 7 23.0001C7 22.4471 7.447 22.0001 8 22.0001H13.185C13.599 20.8391 14.698 20.0001 16 20.0001C17.302 20.0001 18.401 20.8391 18.815 22.0001Z" fill="white"/>
</mask>
<g mask="url(#mask0_1072_2459)">
</g>
</svg>
