<svg width="34" height="34" viewBox="0 0 34 34" fill="none" xmlns="http://www.w3.org/2000/svg">
<circle cx="17" cy="17" r="17" fill="#F4F4F4"/>
<path fill-rule="evenodd" clip-rule="evenodd" d="M13.6668 11.1667C13.6668 11.625 13.2918 12 12.8335 12H12.0002V22H12.8335C13.2918 22 13.6668 22.375 13.6668 22.8333C13.6668 23.2917 13.2918 23.6667 12.8335 23.6667H11.1668C10.7085 23.6667 10.3335 23.2917 10.3335 22.8333V11.1667C10.3335 10.7083 10.7085 10.3333 11.1668 10.3333H12.8335C13.2918 10.3333 13.6668 10.7083 13.6668 11.1667ZM22.0034 13.1873L24.3484 16.5207C24.5567 16.8157 24.5501 17.2115 24.3334 17.4998L21.8334 20.8332C21.6701 21.0515 21.4192 21.1665 21.1659 21.1665C20.9926 21.1665 20.8167 21.1123 20.6667 20.9998C20.2984 20.724 20.2242 20.2015 20.5001 19.834L22.0009 17.8332H22.0001H15.3334C14.8734 17.8332 14.5001 17.4607 14.5001 16.9998C14.5001 16.539 14.8734 16.1665 15.3334 16.1665H22.0001C22.0139 16.1665 22.0266 16.1703 22.0395 16.1741C22.05 16.1772 22.0605 16.1804 22.0717 16.1815L20.6401 14.1457C20.3751 13.7698 20.4659 13.2498 20.8426 12.9848C21.2184 12.719 21.7384 12.8107 22.0034 13.1873Z" fill="#353535"/>
<mask id="mask0_1072_2462" style="mask-type:alpha" maskUnits="userSpaceOnUse" x="10" y="10" width="15" height="14">
<path fill-rule="evenodd" clip-rule="evenodd" d="M13.6668 11.1667C13.6668 11.625 13.2918 12 12.8335 12H12.0002V22H12.8335C13.2918 22 13.6668 22.375 13.6668 22.8333C13.6668 23.2917 13.2918 23.6667 12.8335 23.6667H11.1668C10.7085 23.6667 10.3335 23.2917 10.3335 22.8333V11.1667C10.3335 10.7083 10.7085 10.3333 11.1668 10.3333H12.8335C13.2918 10.3333 13.6668 10.7083 13.6668 11.1667ZM22.0034 13.1873L24.3484 16.5207C24.5567 16.8157 24.5501 17.2115 24.3334 17.4998L21.8334 20.8332C21.6701 21.0515 21.4192 21.1665 21.1659 21.1665C20.9926 21.1665 20.8167 21.1123 20.6667 20.9998C20.2984 20.724 20.2242 20.2015 20.5001 19.834L22.0009 17.8332H22.0001H15.3334C14.8734 17.8332 14.5001 17.4607 14.5001 16.9998C14.5001 16.539 14.8734 16.1665 15.3334 16.1665H22.0001C22.0139 16.1665 22.0266 16.1703 22.0395 16.1741C22.05 16.1772 22.0605 16.1804 22.0717 16.1815L20.6401 14.1457C20.3751 13.7698 20.4659 13.2498 20.8426 12.9848C21.2184 12.719 21.7384 12.8107 22.0034 13.1873Z" fill="white"/>
</mask>
<g mask="url(#mask0_1072_2462)">
</g>
</svg>
