<svg width="34" height="34" viewBox="0 0 34 34" fill="none" xmlns="http://www.w3.org/2000/svg">
<circle cx="17" cy="17" r="17" fill="#078184"/>
<path d="M8 24.5407H26V22.2232C25.073 21.9915 23.4249 20.8327 23.4249 15.0386C23.4249 10.6351 20.4636 9.11588 18.5579 8.57511C18.7124 8.31752 18.7897 8.03424 18.7897 7.72532C18.7897 6.77258 17.9914 6 17.0387 6C16.0859 6 15.2877 6.77258 15.2877 7.72532C15.2877 8.03428 15.3649 8.31755 15.5194 8.57511C13.6138 9.09008 10.6525 10.6352 10.6525 15.0386C10.6525 20.8326 9.00439 21.9914 8.07735 22.2232L8.07717 24.5407H8Z" fill="white"/>
<path d="M16.9869 27.6308C18.2229 27.6308 19.2531 26.6265 19.4332 25.3133H14.5405C14.7209 26.6266 15.7508 27.6308 16.9868 27.6308H16.9869Z" fill="white"/>
</svg>
