<svg width="24" height="24" viewBox="0 0 24 24" fill="none" xmlns="http://www.w3.org/2000/svg">
<path d="M12.4997 2C9.71603 2.00379 7.04747 3.1112 5.07946 5.07946C3.11145 7.04772 2.0038 9.7162 2 12.4997C2.00049 15.2843 3.10673 17.9548 5.07583 19.9237C7.04477 21.8928 9.7151 22.999 12.4998 22.9995C12.6968 22.9995 12.8935 22.9929 13.0905 22.9799V22.9797C15.7673 22.8265 18.2845 21.656 20.1268 19.7078C21.9688 17.7594 22.9966 15.1807 22.9999 12.4998C22.9961 9.71612 21.8887 7.04756 19.9204 5.07955C17.9522 3.11155 15.2837 2.00389 12.5002 2.0001L12.4997 2ZM19.8629 17.3036C17.8388 15.4907 15.2173 14.4884 12.4997 14.4884C9.78201 14.4884 7.16095 15.4908 5.13641 17.3036C4.19396 15.8792 3.69401 14.2079 3.69928 12.4998C3.69928 10.1659 4.62654 7.92765 6.2768 6.27731C7.92719 4.62709 10.1656 3.69979 12.4993 3.69979C14.8331 3.69979 17.0715 4.62705 18.7219 6.27731C20.3721 7.92769 21.2994 10.1661 21.2994 12.4998C21.3047 14.2077 20.8047 15.8791 19.8623 17.3036H19.8629Z" fill="#C1C1C1"/>
<path d="M16.188 9.37638C16.2236 10.392 15.8556 11.3806 15.1647 12.1258C14.4735 12.871 13.5154 13.3123 12.5 13.3532C11.4845 13.3123 10.5264 12.871 9.8353 12.1258C9.14432 11.3806 8.77633 10.392 8.81193 9.37638C8.7765 8.36129 9.14465 7.37348 9.83593 6.62948C10.5271 5.88527 11.485 5.44547 12.4999 5.40607C13.5149 5.44545 14.4728 5.88527 15.1639 6.62948C15.8553 7.37353 16.2234 8.36129 16.1879 9.37638H16.188Z" fill="#C1C1C1"/>
</svg>
