<svg width="34" height="34" viewBox="0 0 34 34" fill="none" xmlns="http://www.w3.org/2000/svg">
<circle cx="17" cy="17" r="17" fill="#353535"/>
<path fill-rule="evenodd" clip-rule="evenodd" d="M17.0001 15.5C16.1731 15.5 15.5001 16.173 15.5001 17C15.5001 17.827 16.1731 18.5 17.0001 18.5C17.8271 18.5 18.5001 17.827 18.5001 17C18.5001 16.173 17.8271 15.5 17.0001 15.5ZM17.0001 20.5C15.0701 20.5 13.5001 18.93 13.5001 17C13.5001 15.07 15.0701 13.5 17.0001 13.5C18.9301 13.5 20.5001 15.07 20.5001 17C20.5001 18.93 18.9301 20.5 17.0001 20.5ZM26.8921 15.319L26.1051 12.798C25.9171 12.193 25.5071 11.704 24.9521 11.42C24.4111 11.143 23.7961 11.096 23.2201 11.288L22.8801 11.401C22.3441 11.582 21.7461 11.482 21.2871 11.137L21.1801 11.056C20.7431 10.728 20.4841 10.193 20.4861 9.627L20.4881 9.348C20.4901 8.713 20.2481 8.118 19.8051 7.673C19.3761 7.242 18.8091 7.004 18.2071 7.003L15.6601 7H15.6561C14.4021 7 13.3781 8.042 13.3731 9.326L13.3721 9.567C13.3701 10.165 13.0951 10.729 12.6391 11.077L12.5101 11.175C11.9971 11.565 11.3321 11.676 10.7331 11.472C10.1751 11.281 9.57812 11.322 9.05012 11.588C8.51012 11.861 8.11112 12.335 7.92612 12.922L7.11012 15.517C6.72312 16.749 7.37312 18.041 8.59012 18.458L8.75412 18.514C9.27212 18.691 9.68912 19.143 9.87312 19.725L9.92812 19.893C10.1471 20.539 10.0711 21.22 9.69712 21.75C8.97712 22.773 9.19612 24.216 10.1861 24.966L12.2581 26.54C12.6561 26.842 13.1271 27 13.6141 27C13.7291 27 13.8451 26.992 13.9611 26.974C14.5731 26.878 15.1101 26.543 15.4721 26.03L15.7031 25.702C16.0351 25.23 16.5421 24.951 17.1311 24.935C17.7181 24.902 18.2781 25.208 18.6281 25.712L18.7461 25.884C19.1051 26.402 19.6411 26.742 20.2551 26.841C20.8641 26.938 21.4711 26.787 21.9661 26.413L24.0271 24.857C25.0211 24.108 25.2491 22.66 24.5351 21.628L24.2741 21.253C23.9461 20.779 23.8501 20.162 24.0161 19.601C24.1971 18.989 24.6491 18.509 25.2261 18.315L25.4271 18.248C26.6141 17.851 27.2711 16.537 26.8921 15.319Z" fill="white"/>
<mask id="mask0_1072_2461" style="mask-type:alpha" maskUnits="userSpaceOnUse" x="6" y="7" width="21" height="20">
<path fill-rule="evenodd" clip-rule="evenodd" d="M17.0001 15.5C16.1731 15.5 15.5001 16.173 15.5001 17C15.5001 17.827 16.1731 18.5 17.0001 18.5C17.8271 18.5 18.5001 17.827 18.5001 17C18.5001 16.173 17.8271 15.5 17.0001 15.5ZM17.0001 20.5C15.0701 20.5 13.5001 18.93 13.5001 17C13.5001 15.07 15.0701 13.5 17.0001 13.5C18.9301 13.5 20.5001 15.07 20.5001 17C20.5001 18.93 18.9301 20.5 17.0001 20.5ZM26.8921 15.319L26.1051 12.798C25.9171 12.193 25.5071 11.704 24.9521 11.42C24.4111 11.143 23.7961 11.096 23.2201 11.288L22.8801 11.401C22.3441 11.582 21.7461 11.482 21.2871 11.137L21.1801 11.056C20.7431 10.728 20.4841 10.193 20.4861 9.627L20.4881 9.348C20.4901 8.713 20.2481 8.118 19.8051 7.673C19.3761 7.242 18.8091 7.004 18.2071 7.003L15.6601 7H15.6561C14.4021 7 13.3781 8.042 13.3731 9.326L13.3721 9.567C13.3701 10.165 13.0951 10.729 12.6391 11.077L12.5101 11.175C11.9971 11.565 11.3321 11.676 10.7331 11.472C10.1751 11.281 9.57812 11.322 9.05012 11.588C8.51012 11.861 8.11112 12.335 7.92612 12.922L7.11012 15.517C6.72312 16.749 7.37312 18.041 8.59012 18.458L8.75412 18.514C9.27212 18.691 9.68912 19.143 9.87312 19.725L9.92812 19.893C10.1471 20.539 10.0711 21.22 9.69712 21.75C8.97712 22.773 9.19612 24.216 10.1861 24.966L12.2581 26.54C12.6561 26.842 13.1271 27 13.6141 27C13.7291 27 13.8451 26.992 13.9611 26.974C14.5731 26.878 15.1101 26.543 15.4721 26.03L15.7031 25.702C16.0351 25.23 16.5421 24.951 17.1311 24.935C17.7181 24.902 18.2781 25.208 18.6281 25.712L18.7461 25.884C19.1051 26.402 19.6411 26.742 20.2551 26.841C20.8641 26.938 21.4711 26.787 21.9661 26.413L24.0271 24.857C25.0211 24.108 25.2491 22.66 24.5351 21.628L24.2741 21.253C23.9461 20.779 23.8501 20.162 24.0161 19.601C24.1971 18.989 24.6491 18.509 25.2261 18.315L25.4271 18.248C26.6141 17.851 27.2711 16.537 26.8921 15.319Z" fill="white"/>
</mask>
<g mask="url(#mask0_1072_2461)">
</g>
</svg>
